<svg width="206" height="116" viewBox="0 0 206 116" fill="none" xmlns="http://www.w3.org/2000/svg">
<circle cx="50" cy="58" r="50" fill="#D9D9D9"/>
<circle cx="156" cy="58" r="50" fill="#D9D9D9"/>
<rect x="50" y="8" width="109" height="100" fill="#D9D9D9"/>
<path d="M65.7727 23.1818V93H57.3182V32.0455H56.9091L39.8636 43.3636V34.7727L57.3182 23.1818H65.7727Z" fill="#E08C4E"/>
<path d="M153.273 43.5114C154.466 43.5208 155.659 43.7481 156.852 44.1932C158.045 44.6383 159.134 45.3769 160.119 46.4091C161.104 47.4318 161.895 48.8286 162.491 50.5994C163.088 52.3703 163.386 54.5909 163.386 57.2614C163.386 59.8466 163.14 62.143 162.648 64.1506C162.165 66.1487 161.464 67.8343 160.545 69.2074C159.636 70.5805 158.528 71.6222 157.222 72.3324C155.924 73.0426 154.456 73.3977 152.818 73.3977C151.189 73.3977 149.736 73.0758 148.457 72.4318C147.188 71.7784 146.147 70.8741 145.332 69.7188C144.527 68.554 144.011 67.2045 143.784 65.6705H147.25C147.562 67.0057 148.183 68.1089 149.111 68.9801C150.048 69.8419 151.284 70.2727 152.818 70.2727C155.063 70.2727 156.833 69.2926 158.131 67.3324C159.438 65.3722 160.091 62.6023 160.091 59.0227H159.864C159.333 59.8182 158.704 60.5047 157.974 61.0824C157.245 61.66 156.436 62.1051 155.545 62.4176C154.655 62.7301 153.708 62.8864 152.705 62.8864C151.038 62.8864 149.509 62.4744 148.116 61.6506C146.734 60.8172 145.626 59.6761 144.793 58.2273C143.969 56.7689 143.557 55.1023 143.557 53.2273C143.557 51.447 143.955 49.8182 144.75 48.3409C145.555 46.8542 146.682 45.6705 148.131 44.7898C149.589 43.9091 151.303 43.483 153.273 43.5114ZM153.273 46.6364C152.08 46.6364 151.005 46.9347 150.048 47.5312C149.101 48.1184 148.348 48.9138 147.79 49.9176C147.241 50.9119 146.966 52.0152 146.966 53.2273C146.966 54.4394 147.231 55.5426 147.761 56.5369C148.301 57.5218 149.035 58.3078 149.963 58.8949C150.901 59.4725 151.966 59.7614 153.159 59.7614C154.059 59.7614 154.897 59.5862 155.673 59.2358C156.45 58.8759 157.127 58.3883 157.705 57.7727C158.292 57.1477 158.751 56.4422 159.082 55.6562C159.414 54.8608 159.58 54.0322 159.58 53.1705C159.58 52.0341 159.305 50.9687 158.756 49.9744C158.216 48.9801 157.468 48.1752 156.511 47.5597C155.564 46.9441 154.485 46.6364 153.273 46.6364Z" fill="#7C7C7C"/>
<circle cx="115" cy="58" r="10" fill="#7C7C7C"/>
<circle cx="88" cy="58" r="15" fill="#7C7C7C"/>
<circle cx="132" cy="58" r="5" fill="#7C7C7C"/>
</svg>
