<svg width="258" height="258" viewBox="0 0 258 258" fill="none" xmlns="http://www.w3.org/2000/svg">
<rect x="133.953" y="109.591" width="25.7732" height="128.866" transform="rotate(45 133.953 109.591)" fill="#7C7C7C"/>
<rect x="130.308" y="105.946" width="36.0825" height="15.4639" transform="rotate(45 130.308 105.946)" fill="#E08C4E"/>
<circle cx="177.692" cy="80.4322" r="56.701" transform="rotate(45 177.692 80.4322)" fill="#5B5B5B"/>
<circle cx="177.692" cy="80.4322" r="48.9691" transform="rotate(45 177.692 80.4322)" fill="#E8E6E6"/>
<circle cx="51.9433" cy="209.825" r="12.8866" transform="rotate(45 51.9433 209.825)" fill="#7C7C7C"/>
<circle cx="143.065" cy="140.573" r="2.57732" transform="rotate(45 143.065 140.573)" fill="#E08C4E"/>
<circle cx="143.065" cy="140.573" r="2.57732" transform="rotate(45 143.065 140.573)" fill="#E08C4E"/>
<circle cx="121.196" cy="118.703" r="2.57732" transform="rotate(45 121.196 118.703)" fill="#E08C4E"/>
<circle cx="121.196" cy="118.703" r="2.57732" transform="rotate(45 121.196 118.703)" fill="#E08C4E"/>
<rect x="127.757" y="125.264" width="3.60825" height="113.402" transform="rotate(45 127.757 125.264)" fill="#5B5B5B"/>
<rect x="134.318" y="131.825" width="3.60825" height="113.402" transform="rotate(45 134.318 131.825)" fill="#5B5B5B"/>
</svg>
