<svg width="206" height="116" viewBox="0 0 206 116" fill="none" xmlns="http://www.w3.org/2000/svg">
<circle cx="50" cy="58" r="50" fill="#7C7C7C"/>
<circle cx="156" cy="58" r="50" fill="#7C7C7C"/>
<rect x="50" y="8" width="109" height="100" fill="#7C7C7C"/>
<circle cx="103" cy="58" r="15" fill="#D9D9D9"/>
<circle cx="130" cy="58" r="10" fill="#D9D9D9"/>
<circle cx="147" cy="58" r="5" fill="#D9D9D9"/>
<path d="M56.4545 22.2273C59.3182 22.25 62.1818 22.7955 65.0455 23.8636C67.9091 24.9318 70.5227 26.7045 72.8864 29.1818C75.25 31.6364 77.1477 34.9886 78.5795 39.2386C80.0114 43.4886 80.7273 48.8182 80.7273 55.2273C80.7273 61.4318 80.1364 66.9432 78.9545 71.7614C77.7955 76.5568 76.1136 80.6023 73.9091 83.8977C71.7273 87.1932 69.0682 89.6932 65.9318 91.3977C62.8182 93.1023 59.2955 93.9545 55.3636 93.9545C51.4545 93.9545 47.9659 93.1818 44.8977 91.6364C41.8523 90.0682 39.3523 87.8977 37.3977 85.125C35.4659 82.3295 34.2273 79.0909 33.6818 75.4091H42C42.75 78.6136 44.2386 81.2614 46.4659 83.3523C48.7159 85.4205 51.6818 86.4545 55.3636 86.4545C60.75 86.4545 65 84.1023 68.1136 79.3977C71.25 74.6932 72.8182 68.0455 72.8182 59.4545H72.2727C71 61.3636 69.4886 63.0114 67.7386 64.3977C65.9886 65.7841 64.0455 66.8523 61.9091 67.6023C59.7727 68.3523 57.5 68.7273 55.0909 68.7273C51.0909 68.7273 47.4205 67.7386 44.0795 65.7614C40.7614 63.7614 38.1023 61.0227 36.1023 57.5455C34.125 54.0455 33.1364 50.0455 33.1364 45.5455C33.1364 41.2727 34.0909 37.3636 36 33.8182C37.9318 30.25 40.6364 27.4091 44.1136 25.2955C47.6136 23.1818 51.7273 22.1591 56.4545 22.2273ZM56.4545 29.7273C53.5909 29.7273 51.0114 30.4432 48.7159 31.875C46.4432 33.2841 44.6364 35.1932 43.2955 37.6023C41.9773 39.9886 41.3182 42.6364 41.3182 45.5455C41.3182 48.4545 41.9545 51.1023 43.2273 53.4886C44.5227 55.8523 46.2841 57.7386 48.5114 59.1477C50.7614 60.5341 53.3182 61.2273 56.1818 61.2273C58.3409 61.2273 60.3523 60.8068 62.2159 59.9659C64.0795 59.1023 65.7045 57.9318 67.0909 56.4545C68.5 54.9545 69.6023 53.2614 70.3977 51.375C71.1932 49.4659 71.5909 47.4773 71.5909 45.4091C71.5909 42.6818 70.9318 40.125 69.6136 37.7386C68.3182 35.3523 66.5227 33.4205 64.2273 31.9432C61.9545 30.4659 59.3636 29.7273 56.4545 29.7273Z" fill="#E08C4E"/>
<path d="M56.4545 22.2273L56.4401 23.2272L56.4466 23.2272L56.4545 22.2273ZM65.0455 23.8636L65.395 22.9267L65.3949 22.9267L65.0455 23.8636ZM72.8864 29.1818L72.1629 29.8721L72.166 29.8755L72.8864 29.1818ZM78.5795 39.2386L77.6319 39.5579L77.6319 39.5579L78.5795 39.2386ZM78.9545 71.7614L77.9833 71.5231L77.9825 71.5264L78.9545 71.7614ZM73.9091 83.8977L73.0779 83.3417L73.0753 83.3457L73.9091 83.8977ZM65.9318 91.3977L65.4543 90.5191L65.4516 90.5206L65.9318 91.3977ZM44.8977 91.6364L44.4399 92.5255L44.4479 92.5295L44.8977 91.6364ZM37.3977 85.125L36.575 85.6935L36.5804 85.7012L37.3977 85.125ZM33.6818 75.4091V74.4091H32.5228L32.6926 75.5556L33.6818 75.4091ZM42 75.4091L42.9737 75.1812L42.793 74.4091H42V75.4091ZM46.4659 83.3523L45.7814 84.0814L45.7892 84.0885L46.4659 83.3523ZM68.1136 79.3977L67.2816 78.843L67.2797 78.8458L68.1136 79.3977ZM72.8182 59.4545H73.8182V58.4545H72.8182V59.4545ZM72.2727 59.4545V58.4545H71.7375L71.4407 58.8998L72.2727 59.4545ZM44.0795 65.7614L43.5633 66.6178L43.5702 66.6219L44.0795 65.7614ZM36.1023 57.5455L35.2316 58.0373L35.2354 58.044L36.1023 57.5455ZM36 33.8182L35.1206 33.3421L35.1195 33.3441L36 33.8182ZM44.1136 25.2955L43.5967 24.4394L43.5942 24.4409L44.1136 25.2955ZM48.7159 31.875L49.2429 32.7249L49.2452 32.7235L48.7159 31.875ZM43.2955 37.6023L42.4217 37.1159L42.4201 37.1188L43.2955 37.6023ZM43.2273 53.4886L42.3449 53.9593L42.3503 53.9693L43.2273 53.4886ZM48.5114 59.1477L47.9767 59.9929L47.9868 59.9991L48.5114 59.1477ZM62.2159 59.9659L62.6272 60.8775L62.6364 60.8732L62.2159 59.9659ZM67.0909 56.4545L66.3621 55.7699L66.3617 55.7702L67.0909 56.4545ZM70.3977 51.375L71.3192 51.7636L71.3208 51.7596L70.3977 51.375ZM69.6136 37.7386L68.7348 38.2157L68.7383 38.2222L69.6136 37.7386ZM64.2273 31.9432L63.6823 32.7816L63.6861 32.7841L64.2273 31.9432ZM56.4466 23.2272C59.1859 23.249 61.9342 23.7704 64.696 24.8006L65.3949 22.9267C62.4294 21.8205 59.4504 21.251 56.4625 21.2273L56.4466 23.2272ZM64.696 24.8006C67.4016 25.8098 69.891 27.491 72.1629 29.8721L73.6099 28.4915C71.1545 25.9181 68.4165 24.0538 65.395 22.9267L64.696 24.8006ZM72.166 29.8755C74.4001 32.1955 76.233 35.4056 77.6319 39.5579L79.5272 38.9194C78.0625 34.5717 76.0999 31.0773 73.6067 28.4882L72.166 29.8755ZM77.6319 39.5579C79.0177 43.6712 79.7273 48.8842 79.7273 55.2273H81.7273C81.7273 48.7522 81.0051 43.306 79.5272 38.9194L77.6319 39.5579ZM79.7273 55.2273C79.7273 61.3706 79.142 66.7995 77.9833 71.5231L79.9258 71.9996C81.1308 67.0869 81.7273 61.493 81.7273 55.2273H79.7273ZM77.9825 71.5264C76.8446 76.2343 75.2032 80.1648 73.0779 83.3417L74.7403 84.4537C77.0241 81.0398 78.7463 76.8793 79.9266 71.9963L77.9825 71.5264ZM73.0753 83.3457C70.9739 86.5197 68.4321 88.9007 65.4543 90.5191L66.4093 92.2764C69.7043 90.4856 72.4807 87.8667 74.7429 84.4498L73.0753 83.3457ZM65.4516 90.5206C62.5006 92.1361 59.1461 92.9545 55.3636 92.9545V94.9545C59.4449 94.9545 63.1358 94.0684 66.412 92.2749L65.4516 90.5206ZM55.3636 92.9545C51.5891 92.9545 48.2581 92.2093 45.3476 90.7433L44.4479 92.5295C47.6737 94.1543 51.32 94.9545 55.3636 94.9545V92.9545ZM45.3555 90.7473C42.4519 89.2522 40.0758 87.1885 38.2151 84.5488L36.5804 85.7012C38.6288 88.607 41.2526 90.8842 44.4399 92.5254L45.3555 90.7473ZM38.2204 84.5565C36.3837 81.8987 35.1962 78.8075 34.671 75.2625L32.6926 75.5556C33.2583 79.3743 34.5481 82.7604 36.5751 85.6935L38.2204 84.5565ZM33.6818 76.4091H42V74.4091H33.6818V76.4091ZM41.0263 75.637C41.8176 79.0179 43.3993 81.845 45.7815 84.0813L47.1503 82.6232C45.078 80.6777 43.6824 78.2094 42.9737 75.1812L41.0263 75.637ZM45.7892 84.0885C48.2601 86.3597 51.4853 87.4545 55.3636 87.4545V85.4545C51.8783 85.4545 49.1718 84.4812 47.1426 82.616L45.7892 84.0885ZM55.3636 87.4545C61.1041 87.4545 65.6592 84.9181 68.9475 79.9496L67.2797 78.8458C64.3408 83.2864 60.3959 85.4545 55.3636 85.4545V87.4545ZM68.9457 79.9524C72.2347 75.0188 73.8182 68.1472 73.8182 59.4545H71.8182C71.8182 67.9438 70.2653 74.3675 67.2816 78.843L68.9457 79.9524ZM72.8182 58.4545H72.2727V60.4545H72.8182V58.4545ZM71.4407 58.8998C70.2243 60.7244 68.7835 62.2942 67.1177 63.6139L68.3596 65.1816C70.1938 63.7285 71.7757 62.0028 73.1048 60.0092L71.4407 58.8998ZM67.1177 63.6139C65.456 64.9303 63.6109 65.945 61.5778 66.6587L62.2403 68.5458C64.48 67.7596 66.5213 66.6379 68.3596 65.1816L67.1177 63.6139ZM61.5778 66.6587C59.5546 67.369 57.3945 67.7273 55.0909 67.7273V69.7273C57.6056 69.7273 59.9909 69.3355 62.2403 68.5458L61.5778 66.6587ZM55.0909 67.7273C51.2644 67.7273 47.7707 66.7839 44.5889 64.9008L43.5702 66.6219C47.0702 68.6933 50.9174 69.7273 55.0909 69.7273V67.7273ZM44.5958 64.9049C41.4282 62.9957 38.8876 60.3825 36.9691 57.0469L35.2354 58.044C37.3169 61.663 40.0945 64.527 43.5633 66.6178L44.5958 64.9049ZM36.9729 57.0536C35.0902 53.7209 34.1364 49.8941 34.1364 45.5455H32.1364C32.1364 50.1968 33.1598 54.37 35.2316 58.0373L36.9729 57.0536ZM34.1364 45.5455C34.1364 41.4278 35.0546 37.6831 36.8805 34.2923L35.1195 33.3441C33.1272 37.0442 32.1364 41.1177 32.1364 45.5455H34.1364ZM36.8794 34.2943C38.7266 30.8824 41.3067 28.1719 44.6331 26.15L43.5942 24.4409C39.966 26.6463 37.137 29.6176 35.1206 33.3421L36.8794 34.2943ZM44.6306 26.1515C47.9467 24.1489 51.8701 23.1613 56.4401 23.2272L56.469 21.2274C51.5844 21.1569 47.2806 22.2147 43.5967 24.4394L44.6306 26.1515ZM56.4545 28.7273C53.4152 28.7273 50.6503 29.4898 48.1867 31.0265L49.2452 32.7235C51.3724 31.3966 53.7666 30.7273 56.4545 30.7273V28.7273ZM48.189 31.0251C45.767 32.5267 43.8427 34.5629 42.4217 37.1159L44.1692 38.0886C45.43 35.8234 47.1194 34.0414 49.2428 32.7249L48.189 31.0251ZM42.4201 37.1188C41.0147 39.6631 40.3182 42.4789 40.3182 45.5455H42.3182C42.3182 42.7938 42.9399 40.3142 44.1708 38.0858L42.4201 37.1188ZM40.3182 45.5455C40.3182 48.6059 40.9892 51.4172 42.3449 53.9592L44.1096 53.018C42.9199 50.7874 42.3182 48.3032 42.3182 45.5455H40.3182ZM42.3503 53.9693C43.7253 56.4779 45.603 58.4911 47.9767 59.9928L49.046 58.3026C46.9652 56.9862 45.3202 55.2267 44.1042 53.008L42.3503 53.9693ZM47.9868 59.9991C50.4076 61.4907 53.149 62.2273 56.1818 62.2273V60.2273C53.4874 60.2273 51.1151 59.5775 49.0359 58.2964L47.9868 59.9991ZM56.1818 62.2273C58.4746 62.2273 60.6271 61.7799 62.6272 60.8774L61.8046 59.0544C60.0774 59.8337 58.2072 60.2273 56.1818 60.2273V62.2273ZM62.6364 60.8732C64.6146 59.9565 66.3448 58.7109 67.8201 57.1389L66.3617 55.7702C65.0643 57.1528 63.5445 58.2481 61.7954 59.0586L62.6364 60.8732ZM67.8198 57.1392C69.3097 55.5532 70.4773 53.7599 71.3192 51.7636L69.4763 50.9864C68.7272 52.7629 67.6903 54.3559 66.3621 55.7699L67.8198 57.1392ZM71.3208 51.7596C72.167 49.7287 72.5909 47.6093 72.5909 45.4091H70.5909C70.5909 47.3452 70.2193 49.2032 69.4747 50.9904L71.3208 51.7596ZM72.5909 45.4091C72.5909 42.5128 71.889 39.7896 70.489 37.2551L68.7383 38.2222C69.9747 40.4604 70.5909 42.8509 70.5909 45.4091H72.5909ZM70.4925 37.2615C69.1164 34.7266 67.2045 32.67 64.7685 31.1023L63.6861 32.7841C65.841 34.1709 67.52 35.9779 68.7348 38.2157L70.4925 37.2615ZM64.7723 31.1047C62.3253 29.5142 59.5423 28.7273 56.4545 28.7273V30.7273C59.185 30.7273 61.5838 31.4176 63.6823 32.7816L64.7723 31.1047Z" fill="#E08C4E"/>
<path d="M170.239 43.9091V73H166.716V47.6023H166.545L159.443 52.3182V48.7386L166.716 43.9091H170.239Z" fill="#D9D9D9"/>
</svg>
