<svg width="200" height="201" viewBox="0 0 200 201" fill="none" xmlns="http://www.w3.org/2000/svg">
<ellipse cx="176.777" cy="23.2024" rx="16.2478" ry="16.2478" transform="rotate(-45 176.777 23.2024)" fill="#7C7C7C"/>
<rect x="46.109" y="130.892" width="168.544" height="32.4957" transform="rotate(-45 46.109 130.892)" fill="#E08C4E"/>
<rect x="18.3823" y="172.406" width="27.513" height="12.9983" transform="rotate(-45 18.3823 172.406)" fill="#7C7C7C"/>
<rect x="18.1865" y="172.21" width="50.1266" height="4.98267" transform="rotate(-55.8919 18.1865 172.21)" fill="#7C7C7C"/>
<rect width="50.1266" height="4.98267" transform="matrix(0.827981 -0.560756 -0.560756 -0.827981 27.8164 181.84)" fill="#7C7C7C"/>
<rect x="155.331" y="21.6707" width="14.0815" height="32.4957" transform="rotate(-45 155.331 21.6707)" fill="#D9D9D9"/>
<rect x="40.4412" y="140.237" width="11.9151" height="27.0797" transform="rotate(-45 40.4412 140.237)" fill="#7C7C7C"/>
<rect x="46.109" y="130.892" width="14.0815" height="32.4957" transform="rotate(-45 46.109 130.892)" fill="#D9D9D9"/>
<rect x="34.3137" y="152.798" width="15.5979" height="18.1976" transform="rotate(-45 34.3137 152.798)" fill="#7C7C7C"/>
<rect x="11.4889" y="185.427" width="14.0815" height="4.33276" transform="rotate(-45 11.4889 185.427)" fill="#6C6C6C"/>
<circle cx="13.0208" cy="186.958" r="2.16638" transform="rotate(-45 13.0208 186.958)" fill="#6C6C6C"/>
</svg>
