<svg width="102" height="150" viewBox="0 0 102 150" fill="none" xmlns="http://www.w3.org/2000/svg">
<rect x="10" y="30.8333" width="80.8333" height="107.5" fill="#5B5B5B"/>
<rect x="66.3295" y="17.7747" width="13.0058" height="125.723" fill="#7C7C7C"/>
<rect y="17.7747" width="13.0058" height="125.723" fill="#7C7C7C"/>
<rect x="88.4393" y="17.7747" width="13.0058" height="125.723" fill="#7C7C7C"/>
<rect x="22.1099" y="17.7747" width="13.0058" height="125.723" fill="#7C7C7C"/>
<rect x="44.2196" y="17.7747" width="13.0058" height="125.723" fill="#7C7C7C"/>
<ellipse cx="6.50289" cy="143.497" rx="6.50289" ry="6.50289" fill="#7C7C7C"/>
<ellipse cx="94.9422" cy="143.497" rx="6.50289" ry="6.50289" fill="#7C7C7C"/>
<rect x="6.50293" y="136.994" width="89.7399" height="13.0058" fill="#7C7C7C"/>
<rect y="17.5" width="101.667" height="13.3333" fill="#E08C4E"/>
<rect x="93.6416" y="10.8381" width="7.80347" height="3.46821" fill="#7C7C7C"/>
<rect y="10.8381" width="7.80347" height="3.46821" fill="#7C7C7C"/>
<rect x="37.7168" width="26.0116" height="8.67052" fill="#5B5B5B"/>
<circle cx="38.8005" cy="5.41908" r="5.41908" fill="#5B5B5B"/>
<circle cx="63.5116" cy="5.41908" r="5.41908" fill="#5B5B5B"/>
<circle cx="4.33526" cy="9.971" r="4.33526" fill="#7C7C7C"/>
<circle cx="97.1098" cy="9.971" r="4.33526" fill="#7C7C7C"/>
<rect x="4.33533" y="5.63574" width="91.9075" height="8.67052" fill="#7C7C7C"/>
</svg>
